<?xml version="1.0" encoding="utf-8"?>
<!-- Generator: Adobe Illustrator 21.0.0, SVG Export Plug-In . SVG Version: 6.00 Build 0)  -->
<?xml-stylesheet type="text/css" href="/static/voo/tools/frontendthemes/dotfive/public/css/logos.css" ?>
<svg version="1.1" id="Layer_1" xmlns="http://www.w3.org/2000/svg" xmlns:xlink="http://www.w3.org/1999/xlink" x="0px" y="0px"
	 viewBox="0 0 393.7 103" style="enable-background:new 0 0 393.7 103;" xml:space="preserve">
<style type="text/css">
	.st0{display:none;fill:#122233;}
	.st2{fill:#FFFFFF;}
</style>
<rect y="0" class="st0" width="447.9" height="198.4"/>
<g>
	<g>
		<path class="st1" d="M97.5,35.7c-3-3-6.8-4.6-10.6-5l0,0l-0.1,0c-3.4-0.5-6.7-2-9.3-4.7c-2.6-2.6-4.2-5.9-4.6-9.3l0-0.1l0,0
			c-0.3-3.8-2-7.6-5-10.6c-6.4-6.4-16.5-6.7-22.7-0.8h0l-0.6,0.6h0c-5.9,6.2-5.6,16.3,0.8,22.7c3,3,6.8,4.6,10.6,4.9l0,0l0.2,0
			c3.4,0.5,6.7,2,9.3,4.6c2.6,2.6,4.2,5.9,4.6,9.3l0,0.1l0,0c0.3,3.8,2,7.6,5,10.6c6.4,6.4,16.5,6.8,22.7,0.9v0l0.6-0.6h0
			C104.3,52.2,103.9,42.1,97.5,35.7 M58.1,44.7c-3-3-6.8-4.6-10.6-5v0l-0.2,0c-3.4-0.5-6.7-2-9.3-4.6c-2.6-2.6-4.2-5.9-4.6-9.3
			l0-0.1l0,0c-0.3-3.8-2-7.6-5-10.6C22.1,8.6,12,8.3,5.8,14.2v0l-0.6,0.6l0,0C-0.7,21-0.4,31,6,37.4c3,3,6.8,4.6,10.6,5v0l0.1,0
			c3.4,0.5,6.7,2,9.3,4.6c2.6,2.6,4.2,5.9,4.6,9.3l0,0.1v0c0.3,3.8,2,7.6,5,10.6c6.4,6.4,16.5,6.7,22.7,0.8l0.6-0.6l0,0
			C64.9,61.2,64.5,51.1,58.1,44.7"/>
		<path class="st2" d="M87.8,74.4c-3-3-6.8-4.6-10.6-5l0,0l-0.1,0c-3.4-0.5-6.7-2-9.3-4.6c-2.6-2.6-4.2-5.9-4.6-9.3l0-0.1v0
			c-0.3-3.8-2-7.6-5-10.6c-6.4-6.4-16.5-6.7-22.7-0.9l-0.6,0.6l0,0c-5.9,6.2-5.6,16.3,0.8,22.7c3,3,6.8,4.6,10.6,4.9l0,0l0.1,0
			c3.4,0.5,6.7,2,9.3,4.7c2.7,2.6,4.2,5.9,4.6,9.3l0,0.2l0,0c0.3,3.8,2,7.6,5,10.6c6.4,6.4,16.5,6.8,22.7,0.9v0l0.6-0.6l0,0
			C94.6,90.9,94.2,80.8,87.8,74.4"/>
	</g>
	<g>
		<path class="st2" d="M162.1,76.5V44.4c-2.3-2.9-5.2-4.4-8.7-4.4c-3.6,0-6.7,2.1-9.4,6.3c-2.7,4.2-4.1,9.7-4.1,16.4
			c0,6.4,1.1,11.2,3.4,14.6c2.3,3.4,5.2,5.1,8.8,5.1c2.1,0,3.9-0.4,5.4-1.2C159,80.5,160.5,78.9,162.1,76.5 M172.4,87.7h-10.3v-4.5
			c-1.7,1.4-3.8,2.6-6.3,3.6c-2.5,1-4.9,1.5-7.2,1.5c-5.2,0-9.6-2.5-13.3-7.4c-3.7-4.9-5.6-10.9-5.6-17.9c0-7.4,2-14,6-19.6
			c4.3-6.1,9.8-9.2,16.3-9.2c3.9,0,7.3,1.4,10.2,4.2v-9l-0.7-15.6h10.4v58.4L172.4,87.7z"/>
		<path class="st2" d="M211.4,61.8c0-7.7-1.2-13.3-3.7-16.9c-2.1-3-5.1-4.6-8.8-4.6c-3.5,0-6.2,1.6-8.1,4.7
			c-2.3,3.7-3.4,9.3-3.4,16.8c0,7.6,1.1,13.2,3.3,16.8c1.9,3.1,4.6,4.7,8.2,4.7c3.8,0,6.9-1.8,9.1-5.3
			C210.3,74.4,211.4,69,211.4,61.8 M222,61.8c0,8.4-2.1,15-6.4,19.8c-4.3,4.8-9.8,7.2-16.6,7.2c-6.2,0-11.4-2.4-15.5-7.1
			c-4.3-4.9-6.5-11.6-6.5-19.9c0-8.2,2.2-14.9,6.6-20c4.1-4.8,9.2-7.2,15.4-7.2c6.7,0,12.3,2.4,16.6,7.3
			C219.8,46.7,222,53.3,222,61.8"/>
		<path class="st2" d="M288.1,42.8c0.2,2.6,0.3,5.2,0.3,7.7v21.7l-1,15.5h11.7l-0.6-15.5V35.6H271c-0.6-1.4-1-2.7-1.2-3.8
			c-0.2-1.1-0.3-2.1-0.3-3.1c0-3,0.9-5.4,2.7-7.4c1.8-1.9,4.1-2.9,7-2.9c3.8,0,6.9,1.5,9.4,4.4v-8.3c-1.2-0.4-2.4-0.8-3.5-1.1
			c-1.1-0.3-2.2-0.4-3.2-0.4c-6.3,0-11.5,1.8-15.6,5.4c-4.1,3.6-6.1,8.4-6.1,14.5v2.8h-19.7V18.7h-10.5l0.7,9.4l0.1,7.4h-8.5v5h8.4
			v35.7c0,4,1.1,7,3.2,9.1c2.1,2.1,5.3,3.1,9.4,3.1c2.8,0,5.7-0.6,8.7-1.8V80c-1.1,0.8-2.1,1.4-3.2,1.9c-1.1,0.5-2.1,0.7-3,0.7
			c-1.7,0-3-0.8-3.9-2.6c-0.9-1.7-1.4-3.7-1.4-5.9V40.6h19.7v31.6l-0.6,15.5H271l-0.7-15.5V40.6h17.7L288.1,42.8z"/>
		<path class="st2" d="M348.5,35.6c-4.6,17.6-10.5,35-17.7,52.1h-8.9c-3.7-8.2-7.1-16.8-10.3-25.6c-2.9-8.1-5.7-17-8.4-26.5h11
			c1.9,7.8,3.9,15,6.1,21.7c2.1,6.7,4.6,13.4,7.3,20.2c5.8-13.8,10.2-27.8,13.5-42H348.5z"/>
		<path class="st2" d="M380.7,49.9c0-1.9-1-4.1-2.9-6.4c-2.1-2.6-4.4-3.8-6.7-3.8c-3.2,0-6,1.5-8.5,4.6c-2.7,3.3-4,7.5-4,12.4
			c0,1.6,0.2,3.3,0.6,5.3l19.3-8C380,53.3,380.7,51.9,380.7,49.9 M392.2,80.6c-1.7,2.1-3.9,3.9-6.5,5.2c-2.3,1.1-4.9,1.9-7.8,2.4
			l-4.7,0.3c-6.9,0-12.6-2.3-17.1-7c-4.7-4.9-7-11.5-7-19.9c0-8.2,2.4-15,7.3-20.2c4.5-4.7,9.7-7.1,15.7-7.1c5,0,9.5,2.1,13.3,6.4
			c3.8,4.3,5.8,8.7,5.8,13.3l-31.1,12.7c0.6,4.2,2.5,7.9,5.5,11.2c3,3.3,6.4,4.9,10,4.9c2.5,0,4.6-0.4,6.3-1.1
			c2.2-0.9,4.5-2.6,7.1-5.2L392.2,80.6z"/>
	</g>
</g>
</svg>
